<?xml version="1.0" encoding="utf-8"?>
<!-- Generator: Adobe Illustrator 26.5.3, SVG Export Plug-In . SVG Version: 6.00 Build 0)  -->
<svg version="1.1" id="Layer_1" xmlns="http://www.w3.org/2000/svg" xmlns:xlink="http://www.w3.org/1999/xlink" x="0px" y="0px"
	 viewBox="0 0 201.3 201.3" style="enable-background:new 0 0 201.3 201.3;" xml:space="preserve">
<style type="text/css">
	.st0{fill:#41C5EF;}
	.st1{fill:#63C8D2;}
	.st2{fill:#86CDAD;}
	.st3{fill:#EEF1B5;}
</style>
<path class="st0" d="M29.6,86.7c-5.2-5.2-13.6-5.2-18.9,0c-2.6,2.6-3.9,6-3.9,9.4v80c0,3.4,1.3,6.8,3.9,9.4c5.2,5.2,13.6,5.2,18.9,0
	c2.6-2.6,3.9-6,3.9-9.4v-80C33.5,92.7,32.2,89.3,29.6,86.7z"/>
<path class="st1" d="M82.9,113.4c-5.2-5.2-13.6-5.2-18.9,0c-2.6,2.6-3.9,6-3.9,9.4v53.3c0,3.4,1.3,6.8,3.9,9.4
	c5.2,5.2,13.6,5.2,18.9,0c2.6-2.6,3.9-6,3.9-9.4v-53.3C86.8,119.4,85.5,116,82.9,113.4z"/>
<path class="st2" d="M136.3,140.1c-5.2-5.2-13.6-5.2-18.9,0c-2.6,2.6-3.9,6-3.9,9.4v26.7c0,3.4,1.3,6.8,3.9,9.4
	c5.2,5.2,13.6,5.2,18.9,0c2.6-2.6,3.9-6,3.9-9.4v-26.7C140.2,146.1,138.9,142.7,136.3,140.1z"/>
<path class="st3" d="M193.5,96.2c0-3.4-1.3-6.8-3.9-9.4c-5.2-5.2-13.6-5.2-18.9,0c-2.6,2.6-3.9,6-3.9,9.4h0v80h0
	c0,3.4,1.3,6.8,3.9,9.4c5.2,5.2,13.6,5.2,18.9,0c2.6-2.6,3.9-6,3.9-9.4V96.2z"/>
</svg>
