<?xml version="1.0" encoding="utf-8"?>
<!-- Generator: Adobe Illustrator 28.1.0, SVG Export Plug-In . SVG Version: 6.00 Build 0)  -->
<svg version="1.1" id="Layer_1" xmlns="http://www.w3.org/2000/svg" xmlns:xlink="http://www.w3.org/1999/xlink" x="0px" y="0px"
	 viewBox="0 0 207.9 50.9" style="enable-background:new 0 0 207.9 50.9;" xml:space="preserve">
<style type="text/css">
	.st0{fill:#231F20;}
	.st1{fill:#FFFFFF;}
	.st2{fill:#6AC2EA;}
	.st3{fill:#74DBDF;}
	.st4{fill:#7BEDC5;}
	.st5{fill:#EFF5BA;}
</style>
<g>
	<path class="st1" d="M14.4,40.8c-1.4,0.6-2.9,0.9-4.5,0.9c-2.4,0-4.4-0.7-5.9-2s-2.3-3.1-2.3-5.2s0.7-3.9,2.2-5.2s3.9-2.3,7.3-3
		l6.1-1.2V24c0-1.5-0.4-2.6-1.2-3.4s-2.1-1.2-3.7-1.2c-1.5,0-2.8,0.4-3.8,1.1c-1,0.7-1.7,1.8-2,3.2l-4.1-1.1C3,20.5,4.3,18.8,6,17.5
		c1.8-1.3,3.9-1.9,6.4-1.9c2.9,0,5.2,0.7,6.7,2.1c1.6,1.4,2.4,3.4,2.4,6V36c0,0.8,0.2,1.3,0.7,1.6c0.5,0.3,1.1,0.4,2,0.2v3.5
		c-2,0.3-3.5,0.1-4.6-0.3c-1.1-0.5-1.8-1.3-2-2.5C16.8,39.4,15.7,40.2,14.4,40.8z M15.3,36.6c1.3-1,2-2.3,2-3.9v-4.3l-4.9,1.1
		c-2.4,0.5-4.1,1.1-5,1.8c-0.9,0.8-1.4,1.8-1.4,3c0,1.2,0.4,2.2,1.2,2.9c0.8,0.7,1.9,1,3.3,1C12.3,38.2,14,37.6,15.3,36.6z"/>
	<path class="st1" d="M33.2,6.8v34.5h-4.3V6.8H33.2z"/>
	<path class="st1" d="M57.1,40.7c-1.4,0.7-2.9,1-4.6,1c-1.7,0-3.2-0.4-4.6-1.1c-1.4-0.7-2.4-1.8-3.2-3.1v12.3h-4.3V16.1h4.3v3.6
		c0.8-1.3,1.9-2.3,3.2-3c1.4-0.7,2.9-1.1,4.5-1.1c1.7,0,3.2,0.3,4.7,1c1.4,0.7,2.6,1.7,3.6,3c0.9,1.2,1.5,2.5,2,4.1s0.7,3.2,0.7,4.9
		c0,1.7-0.2,3.4-0.7,4.9c-0.5,1.6-1.1,2.9-2,4.1C59.7,39,58.5,40,57.1,40.7z M46.6,21.7c-1.3,1.5-2,3.6-2,6.1v1.8
		c0,2.6,0.7,4.6,2,6.1c1.3,1.5,3,2.3,5.1,2.3c2.2,0,4-0.8,5.4-2.5s2-3.9,2-6.7c0-2.8-0.7-5.1-2-6.7c-1.3-1.7-3.1-2.5-5.4-2.5
		C49.6,19.4,47.9,20.2,46.6,21.7z"/>
	<path class="st1" d="M68.9,41.2V6.8h4.3v12.8c0.9-1.2,1.9-2.2,3.2-2.9c1.3-0.7,2.7-1,4.2-1c2.6,0,4.6,0.8,6.1,2.4
		c1.5,1.6,2.3,3.8,2.3,6.6v16.6h-4.3V25.8c0-2-0.4-3.5-1.3-4.6s-2.2-1.6-3.9-1.6c-1.7,0-3.2,0.6-4.4,1.8c-1.2,1.2-1.8,2.8-1.8,4.7
		v15H68.9z"/>
	<path class="st1" d="M106.7,40.8c-1.4,0.6-2.9,0.9-4.5,0.9c-2.4,0-4.4-0.7-5.9-2S94,36.6,94,34.5s0.7-3.9,2.2-5.2s3.9-2.3,7.3-3
		l6.1-1.2V24c0-1.5-0.4-2.6-1.2-3.4s-2.1-1.2-3.7-1.2c-1.5,0-2.8,0.4-3.8,1.1s-1.7,1.8-2,3.2l-4.1-1.1c0.6-2.1,1.9-3.8,3.6-5.1
		c1.8-1.3,3.9-1.9,6.4-1.9c2.9,0,5.2,0.7,6.7,2.1c1.6,1.4,2.4,3.4,2.4,6V36c0,0.8,0.2,1.3,0.7,1.6c0.5,0.3,1.1,0.4,2,0.2v3.5
		c-2,0.3-3.5,0.1-4.6-0.3c-1.1-0.5-1.8-1.3-2-2.5C109.2,39.4,108.1,40.2,106.7,40.8z M107.6,36.6c1.3-1,2-2.3,2-3.9v-4.3l-4.9,1.1
		c-2.4,0.5-4.1,1.1-5,1.8c-0.9,0.8-1.4,1.8-1.4,3c0,1.2,0.4,2.2,1.2,2.9c0.8,0.7,1.9,1,3.3,1C104.7,38.2,106.3,37.6,107.6,36.6z"/>
	<path class="st1" d="M120.9,41.2V6.8h11.5c2.6,0,5,0.4,7.2,1.2s4,1.9,5.5,3.5c1.5,1.5,2.7,3.3,3.5,5.5c0.8,2.1,1.2,4.5,1.2,7.1
		s-0.4,5-1.2,7.1c-0.8,2.1-2,4-3.5,5.5c-1.5,1.5-3.3,2.7-5.5,3.5c-2.1,0.8-4.5,1.2-7.2,1.2H120.9z M126.9,36h5.5
		c3.5,0,6.2-1.1,8.3-3.2c2-2.1,3-5.1,3-8.7c0-3.7-1-6.6-3-8.8c-2-2.1-4.8-3.2-8.3-3.2h-5.5V36z"/>
	<path class="st1" d="M160.7,6.8v34.5h-6.1V6.8H160.7z"/>
	<path class="st1" d="M177.5,6.8h7l13.1,34.5h-6.2l-3-7.9h-14.9l-2.9,7.9h-6.1L177.5,6.8z M180.8,13.6L175.4,28h10.8L180.8,13.6z"/>
</g>
</svg>
